<svg width="135" height="43" viewBox="0 0 135 43" xmlns="http://www.w3.org/2000/svg">
    <g fill="#FFF" fill-rule="nonzero">
        <path d="m89.819 21.561-.289.865-1.19 3.562v12.051h3.57V21.561H89.82zm-6.53 0L79.926 32.72l-3.64-11.204h-3.06l-3.64 11.204L66.24 21.62l-1.635 1.73-1.19 1.26 4.523 13.546h3.107l3.663-10.781 3.664 10.78h3.107l5.542-16.595h-3.733zM29.21 29.846V29.8c0-4.684 3.641-8.52 8.649-8.52 5.008 0 8.601 3.788 8.601 8.473v.048c0 4.684-3.638 8.521-8.647 8.521-5.008 0-8.602-3.79-8.602-8.475m13.518 0V29.8c0-2.825-2.041-5.178-4.916-5.178-2.875 0-4.869 2.307-4.869 5.132v.046c0 2.825 2.04 5.178 4.915 5.178s4.87-2.306 4.87-5.132m51.8-8.285h7.42c2.063 0 3.663.588 4.729 1.67.904.92 1.392 2.215 1.392 3.768v.048c0 2.659-1.415 4.33-3.479 5.107l3.965 5.885h-4.173l-3.478-5.272H98.1v5.272h-3.571V21.56zm7.187 8.004c1.74 0 2.736-.941 2.736-2.33v-.047c0-1.554-1.066-2.354-2.806-2.354H98.1v4.731h3.616zM109.489 21.561v12.93l2.39 3.548h9.968v-3.225h-8.811v-3.46h7.651V28.13h-7.651v-3.343h8.696v-3.226h-12.243zM24.585 32.155c2.062-.778 3.477-2.45 3.477-5.108v-.049c0-1.553-.487-2.848-1.391-3.765-1.067-1.083-2.666-1.672-4.73-1.672H12.71v3.272h1.812v13.205h3.57v-5.273h2.807l3.477 5.273h4.174l-3.964-5.885v.002zm-.14-4.92c0 1.389-.997 2.33-2.736 2.33h-3.617v-4.732h3.548c1.738 0 2.805.801 2.805 2.354v.049-.002zm38.322-5.674h-4.312l-6.584 7.204v-7.204H48.3V38.04h3.57v-5.037l1.878-1.977 5.031 7.014h4.29l-6.909-9.487 6.607-6.99z"/>
        <g>
            <path d="M22.22 13.848v-3.17h2.273c1.927 0 2.997-1.325 2.997-2.877 0-1.565-1.057-2.876-2.997-2.876H20.32v8.923h1.9zm2.02-4.843h-2.02V6.597h2.02c.748 0 1.31.455 1.31 1.204 0 .736-.562 1.204-1.31 1.204zM34.089 14.008c2.702 0 4.669-1.926 4.669-4.615s-1.967-4.615-4.669-4.615c-2.689 0-4.655 1.926-4.655 4.615s1.966 4.615 4.655 4.615zm0-1.685c-1.645 0-2.702-1.271-2.702-2.93 0-1.672 1.057-2.93 2.702-2.93s2.716 1.258 2.716 2.93c0 1.659-1.07 2.93-2.716 2.93zM49.865 13.848l2.542-8.923h-2.14l-1.552 6.448-1.686-6.448h-1.485l-1.699 6.448-1.565-6.448h-2.127l2.555 8.923h2.02L46.28 7.72l1.565 6.127zM60.812 13.848v-1.672h-4.415v-2.02h4.321V8.483h-4.32V6.597h4.414V4.925h-6.314v8.923zM70.715 13.848 68.71 10.45c.963-.227 1.953-1.07 1.953-2.649 0-1.659-1.137-2.876-2.997-2.876h-4.174v8.923h1.9v-3.17h1.391l1.753 3.17h2.18zm-3.33-4.843H65.39V6.597h1.993c.763 0 1.338.455 1.338 1.204 0 .75-.575 1.204-1.338 1.204zM79.602 13.848v-1.672h-4.415v-2.02h4.321V8.483h-4.32V6.597h4.414V4.925h-6.314v8.923zM85.8 13.848c2.796 0 4.736-1.766 4.736-4.455s-1.94-4.468-4.736-4.468H82.28v8.923H85.8zm0-1.672H84.18V6.597H85.8c1.833 0 2.796 1.218 2.796 2.796 0 1.512-1.03 2.783-2.796 2.783zM102.543 13.848c1.7 0 2.595-1.07 2.595-2.408 0-1.124-.762-2.047-1.712-2.194.843-.174 1.538-.923 1.538-2.047 0-1.19-.87-2.274-2.568-2.274H97.7v8.923h4.843zm-.562-5.351H99.6v-1.94h2.381c.642 0 1.044.415 1.044.977 0 .561-.402.963-1.044.963zm.067 3.705H99.6V10.13h2.448c.75 0 1.15.481 1.15 1.043 0 .642-.427 1.03-1.15 1.03zM111.75 13.848v-3.652l3.412-5.271h-2.167l-2.194 3.585-2.22-3.585h-2.168l3.438 5.27v3.653z"/>
        </g>
    </g>
</svg>
